<?xml version="1.0" encoding="utf-8"?>
<!-- Generator: Adobe Illustrator 25.4.1, SVG Export Plug-In . SVG Version: 6.00 Build 0)  -->
<svg version="1.2" baseProfile="tiny" id="Capa_1" xmlns="http://www.w3.org/2000/svg" xmlns:xlink="http://www.w3.org/1999/xlink"
	 x="0px" y="0px" viewBox="0 0 392.3 111.2" overflow="visible" xml:space="preserve">
<g>
	<g>
		<path fill="#003049" d="M161,77c-4.3-1.1-7.8-2.6-10.4-4.5l5.2-11.7c2.5,1.7,5.4,3,8.8,4c3.3,1,6.6,1.5,9.8,1.5
			c6.1,0,9.2-1.5,9.2-4.6c0-1.6-0.9-2.8-2.6-3.6c-1.7-0.8-4.5-1.6-8.4-2.4c-4.2-0.9-7.8-1.9-10.6-2.9c-2.8-1-5.3-2.7-7.3-5
			c-2-2.3-3.1-5.4-3.1-9.3c0-3.4,0.9-6.5,2.8-9.3c1.9-2.8,4.7-4.9,8.4-6.5c3.7-1.6,8.3-2.4,13.7-2.4c3.7,0,7.3,0.4,10.9,1.2
			c3.6,0.8,6.7,2,9.5,3.7L191.9,37c-5.4-2.9-10.5-4.3-15.6-4.3c-3.2,0-5.5,0.5-6.9,1.4c-1.4,0.9-2.2,2.2-2.2,3.7
			c0,1.5,0.9,2.6,2.6,3.4c1.7,0.8,4.5,1.5,8.3,2.3c4.3,0.9,7.8,1.9,10.6,2.9c2.8,1,5.2,2.7,7.3,5c2.1,2.3,3.1,5.4,3.1,9.3
			c0,3.4-0.9,6.4-2.8,9.2c-1.9,2.7-4.7,4.9-8.4,6.5c-3.7,1.6-8.3,2.4-13.7,2.4C169.7,78.7,165.3,78.2,161,77z"/>
		<path fill="#003049" d="M247.1,38.2c3.3,3.2,4.9,8.1,4.9,14.5v24.9h-15.3V55.2c0-5.9-2.4-8.9-7.1-8.9c-2.6,0-4.7,0.9-6.3,2.6
			c-1.6,1.7-2.4,4.3-2.4,7.7v21h-15.3V18H221v20.1c1.7-1.6,3.6-2.7,5.9-3.5c2.2-0.8,4.7-1.2,7.2-1.2C239.5,33.3,243.8,35,247.1,38.2
			z"/>
		<path fill="#003049" d="M271.5,75.4c-3.7-1.9-6.7-4.6-8.8-8c-2.1-3.4-3.2-7.3-3.2-11.6c0-4.3,1.1-8.1,3.2-11.6
			c2.1-3.4,5-6.1,8.8-8c3.7-1.9,7.9-2.9,12.6-2.9c4.7,0,8.9,1,12.7,2.9c3.7,1.9,6.7,4.6,8.8,8c2.1,3.4,3.1,7.3,3.1,11.6
			s-1,8.2-3.1,11.6c-2.1,3.4-5,6.1-8.8,8c-3.7,1.9-8,2.9-12.7,2.9C279.4,78.3,275.2,77.4,271.5,75.4z M290.7,63.4
			c1.7-1.8,2.6-4.4,2.6-7.7c0-3.2-0.9-5.7-2.6-7.5c-1.7-1.8-3.9-2.7-6.6-2.7c-2.7,0-4.9,0.9-6.6,2.7c-1.7,1.8-2.6,4.3-2.6,7.5
			c0,3.3,0.9,5.8,2.6,7.7c1.7,1.8,3.9,2.8,6.6,2.8C286.8,66.2,289,65.3,290.7,63.4z"/>
		<path fill="#003049" d="M353.9,36.1c3.2,1.8,5.8,4.5,7.7,7.9c1.9,3.4,2.9,7.3,2.9,11.8c0,4.5-1,8.4-2.9,11.8
			c-1.9,3.4-4.5,6-7.7,7.9c-3.2,1.8-6.8,2.8-10.8,2.8c-5.1,0-9.1-1.5-12.1-4.6v19.4h-15.3V34.1h14.5v4.3c2.8-3.4,7.1-5.1,12.8-5.1
			C347.1,33.3,350.7,34.3,353.9,36.1z M346.5,63.4c1.7-1.8,2.6-4.4,2.6-7.6s-0.9-5.7-2.6-7.6c-1.7-1.8-3.9-2.8-6.6-2.8
			c-2.7,0-4.9,0.9-6.6,2.8c-1.7,1.8-2.6,4.4-2.6,7.6s0.9,5.7,2.6,7.6c1.7,1.8,3.9,2.8,6.6,2.8C342.6,66.2,344.8,65.3,346.5,63.4z"/>
	</g>
	<g>
		<path fill="#D62828" d="M33,67.4c-2.1-0.9-3.8-2.2-5.2-3.8l5.4-6.4c1.9,2.4,3.9,3.7,6.1,3.7c1.4,0,2.5-0.4,3.3-1.3
			c0.8-0.9,1.1-2.1,1.1-3.8V40.7H31.6V33h21.9v22.1c0,4.5-1.1,7.9-3.4,10.2c-2.3,2.3-5.6,3.4-10.1,3.4C37.4,68.8,35.1,68.3,33,67.4z
			"/>
		<path fill="#D62828" d="M85.6,43.5c2.1,2,3.1,5,3.1,9.1v15.5h-9.5v-14c0-3.7-1.5-5.6-4.5-5.6c-1.6,0-2.9,0.5-3.9,1.6
			c-1,1.1-1.5,2.7-1.5,4.8v13.1h-9.5V30.9h9.5v12.5c1-1,2.3-1.7,3.7-2.2s2.9-0.8,4.5-0.8C80.8,40.5,83.5,41.5,85.6,43.5z"/>
		<path fill="#D62828" d="M100.8,66.7c-2.3-1.2-4.2-2.9-5.5-5c-1.3-2.1-2-4.6-2-7.3c0-2.7,0.7-5.1,2-7.2c1.3-2.1,3.1-3.8,5.5-5
			c2.3-1.2,4.9-1.8,7.9-1.8c2.9,0,5.6,0.6,7.9,1.8c2.3,1.2,4.2,2.8,5.5,5c1.3,2.1,2,4.5,2,7.2c0,2.7-0.7,5.1-2,7.3
			c-1.3,2.1-3.1,3.8-5.5,5c-2.3,1.2-5,1.8-7.9,1.8C105.7,68.5,103.1,67.9,100.8,66.7z M112.7,59.2c1.1-1.2,1.6-2.7,1.6-4.8
			c0-2-0.5-3.6-1.6-4.7c-1.1-1.1-2.4-1.7-4.1-1.7c-1.7,0-3,0.6-4.1,1.7c-1.1,1.1-1.6,2.7-1.6,4.7c0,2,0.5,3.6,1.6,4.8
			c1.1,1.2,2.4,1.7,4.1,1.7C110.3,61,111.7,60.4,112.7,59.2z"/>
		<path fill="#D62828" d="M128.2,50.1h14.6v7.3h-14.6V50.1z"/>
	</g>
</g>
</svg>
